<svg xmlns="http://www.w3.org/2000/svg" width="21.162" height="21.162" viewBox="0 0 21.162 21.162">
  <g id="Component_2_5" data-name="Component 2 – 5" transform="translate(0.581 0.581)">
    <path id="Shape" d="M10,16.667a8,8,0,0,1-3.893-1.042,11.815,11.815,0,0,1-2.878-2.292A15.967,15.967,0,0,1,.833,10,15.274,15.274,0,0,1,5.05,5.05L8.233,8.232a2.5,2.5,0,1,0,3.533,3.535L14.95,14.95A8.336,8.336,0,0,1,10,16.667Zm7.367-4.009h0L8.25,3.533a7.591,7.591,0,0,1,1.727-.2H10a8,8,0,0,1,3.893,1.042,11.813,11.813,0,0,1,2.878,2.292A15.964,15.964,0,0,1,19.166,10a15.4,15.4,0,0,1-1.8,2.658Z" fill="none" stroke="gray" strokeLinecap="round" strokeLinejoin="round" strokeWidth="2"/>
    <path id="Shape-2" data-name="Shape" d="M0,0,18.333,18.333" transform="translate(0.833 0.833)" fill="none" stroke="gray" strokeLinecap="round" strokeLinejoin="round" strokeWidth="2"/>
    <path id="Size" d="M0,0H20V20H0Z" fill="none"/>
  </g>
</svg>
