<svg id="exclamation" xmlns="http://www.w3.org/2000/svg" width="20.843" height="20.843" viewBox="0 0 20.843 20.843">
  <g id="Group_2721" data-name="Group 2721" transform="translate(0 0)">
    <g id="Group_2720" data-name="Group 2720">
      <path id="Path_570" data-name="Path 570" d="M10.422,0A10.422,10.422,0,1,0,20.843,10.422,10.416,10.416,0,0,0,10.422,0Zm0,19.215a8.793,8.793,0,1,1,8.793-8.793A8.788,8.788,0,0,1,10.422,19.215Z" transform="translate(0 0)" fill="#e34850"/>
    </g>
  </g>
  <g id="Group_2723" data-name="Group 2723" transform="translate(9.607 5.246)">
    <g id="Group_2722" data-name="Group 2722">
      <path id="Path_571" data-name="Path 571" d="M236.814,128.877a.814.814,0,0,0-.814.814v5.243a.814.814,0,1,0,1.628,0v-5.243A.814.814,0,0,0,236.814,128.877Z" transform="translate(-236 -128.877)" fill="#e34850"/>
    </g>
  </g>
  <g id="Group_2725" data-name="Group 2725" transform="translate(9.322 13.115)">
    <g id="Group_2724" data-name="Group 2724">
      <circle id="Ellipse_1" data-name="Ellipse 1" cx="1.099" cy="1.099" r="1.099" fill="#e34850"/>
    </g>
  </g>
</svg>
